<svg viewBox="0 0 900 200" xmlns="http://www.w3.org/2000/svg"><path d="m0 71 21.5 3.2c21.5 3.1 64.5 9.5 107.3 15 42.9 5.5 85.5 10.1 128.4 8.8 42.8-1.3 85.8-8.7 128.6-17.7 42.9-9 85.5-19.6 128.4-22.6 42.8-3 85.8 1.6 128.6 8.5C685.7 73 728.3 82 771.2 82.3c42.8.4 85.8-8 107.3-12.1L900 66v135H0Z" fill="#201D7B66"/><path d="m0 127 21.5-4.7c21.5-4.6 64.5-14 107.3-20.6C171.7 95 214.3 91 257.2 91c42.8 0 85.8 4 128.6 10.5 42.9 6.5 85.5 15.5 128.4 15.7 42.8.1 85.8-8.5 128.6-8.2 42.9.3 85.5 9.7 128.4 13.3 42.8 3.7 85.8 1.7 107.3.7l21.5-1v79H0Z" fill="#7b6db2"/><path d="m0 120 21.5 1.3c21.5 1.4 64.5 4 107.3 6.5 42.9 2.5 85.5 4.9 128.4 5 42.8.2 85.8-1.8 128.6-5.3 42.9-3.5 85.5-8.5 128.4-11.7 42.8-3.1 85.8-4.5 128.6-2.3 42.9 2.2 85.5 7.8 128.4 12.2 42.8 4.3 85.8 7.3 107.3 8.8L900 136v65H0Z" fill="#bdb4d8"/><path d="m0 164 21.5-2.2c21.5-2.1 64.5-6.5 107.3-5.8 42.9.7 85.5 6.3 128.4 6.3 42.8 0 85.8-5.6 128.6-9.6 42.9-4 85.5-6.4 128.4-4.7 42.8 1.7 85.8 7.3 128.6 8.8 42.9 1.5 85.5-1.1 128.4 0 42.8 1.2 85.8 6.2 107.3 8.7L900 168v33H0Z" fill="#fdfdfd"/></svg>
