<svg viewBox="0 0 900 400" xmlns="http://www.w3.org/2000/svg"><path d="m0 343 21.5-4.3c21.5-4.4 64.5-13 107.3-12.9 42.9.2 85.5 9.2 128.4 7.9 42.8-1.4 85.8-13 128.6-16.9 42.9-3.8 85.5.2 128.4 6.5 42.8 6.4 85.8 15 128.6 19.4 42.9 4.3 85.5 4.3 128.4 2.1 42.8-2.1 85.8-6.5 107.3-8.6L900 334v67H0Z" fill="#c1b7e880"/><path d="m0 339 21.5 4c21.5 4 64.5 12 107.3 15 42.9 3 85.5 1 128.4 1.7 42.8.6 85.8 4 128.6 1.5 42.9-2.5 85.5-10.9 128.4-8.9 42.8 2 85.8 14.4 128.6 16.2 42.9 1.8 85.5-6.8 128.4-11.2C814 353 857 353 878.5 353H900v48H0Z" fill="#d6ceefC2"/></svg>
